<?xml version="1.0" encoding="utf-8"?>
<!-- Generator: Adobe Illustrator 18.1.1, SVG Export Plug-In . SVG Version: 6.00 Build 0)  -->
<!DOCTYPE svg PUBLIC "-//W3C//DTD SVG 1.1//EN" "http://www.w3.org/Graphics/SVG/1.1/DTD/svg11.dtd">
<svg version="1.1" id="Layer_1" xmlns="http://www.w3.org/2000/svg" xmlns:xlink="http://www.w3.org/1999/xlink" x="0px" y="0px"
	 viewBox="0 0 203.7 92.5" style="enable-background:new 0 0 203.7 92.5;" xml:space="preserve">
<style type="text/css">
	.st0{fill:#FFFFFF;}
</style>
<g>
	<g>
		<path class="st0" d="M29.5,9.4h-1.7V2.8l-4.7,6.6h-1.4V0h1.7v6.6L28.1,0h1.4V9.4z"/>
	</g>
	<g>
		<path class="st0" d="M36.8,6.5H34v2.9h-1.7V2.5H34v2.6h2.7V2.5h1.7v6.9h-1.7V6.5z"/>
	</g>
	<g>
		<path class="st0" d="M44.1,9.4h-1.7V3.9H40V2.5h6.5v1.3h-2.4V9.4z"/>
		<path class="st0" d="M50.5,9.6c-1,0-1.9-0.3-2.4-0.9c-0.6-0.6-0.8-1.5-0.8-2.7c0-1.2,0.3-2.1,0.8-2.7c0.6-0.6,1.4-1,2.4-1
			c0.9,0,1.5,0.3,2,0.8s0.7,1.2,0.7,2.2c0,0.3,0,0.6-0.1,1h-4.2c0.1,1.4,0.7,2,1.8,2c0.6,0,1.3-0.2,2-0.5L53,9.1
			C52.2,9.4,51.4,9.6,50.5,9.6z M51.3,4c-0.2-0.3-0.6-0.4-1-0.4c-0.9,0-1.4,0.5-1.5,1.6h2.8C51.7,4.7,51.6,4.3,51.3,4z"/>
	</g>
	<g>
		<path class="st0" d="M60.9,9.4h-1.7V3.9h-2L57,6.8c-0.1,0.8-0.3,1.5-0.7,1.9s-1,0.8-1.8,0.9l-0.4-1.3c0.5-0.1,0.8-0.3,1-0.6
			s0.3-0.7,0.4-1.2l0.3-4h5.1V9.4z"/>
	</g>
	<g>
		<path class="st0" d="M69.2,9.4h-1.7V3.9h-2l-0.3,2.9c-0.1,0.8-0.3,1.5-0.7,1.9s-1,0.8-1.8,0.9l-0.4-1.3c0.5-0.1,0.8-0.3,1-0.6
			c0.2-0.3,0.3-0.7,0.4-1.2l0.3-4h5.1V9.4z"/>
	</g>
	<g>
		<path class="st0" d="M74.6,9.6c-1,0-1.9-0.3-2.4-0.9c-0.6-0.6-0.8-1.5-0.8-2.7c0-1.2,0.3-2.1,0.8-2.7c0.6-0.6,1.4-1,2.4-1
			c0.9,0,1.5,0.3,2,0.8c0.5,0.5,0.7,1.2,0.7,2.2c0,0.3,0,0.6-0.1,1h-4.2c0.1,1.4,0.7,2,1.8,2c0.6,0,1.3-0.2,2-0.5l0.3,1.2
			C76.3,9.4,75.4,9.6,74.6,9.6z M75.4,4c-0.2-0.3-0.6-0.4-1-0.4c-0.9,0-1.4,0.5-1.5,1.6h2.8C75.8,4.7,75.7,4.3,75.4,4z"/>
	</g>
	<g>
		<path class="st0" d="M85.5,9.4h-1.9l-0.8-2.2c-0.2-0.5-0.5-0.7-1.1-0.7h-0.6v2.9h-1.7V2.5h1.7v2.8h0.8h0.1l1.5-2.8h1.9l-2,3.1
			c0.4,0.2,0.8,0.6,1,1.2L85.5,9.4L85.5,9.4z"/>
	</g>
	<g>
		<path class="st0" d="M90.1,9.4h-1.7V3.9H86V2.5h6.5v1.3h-2.4V9.4z"/>
	</g>
	<g>
		<path class="st0" d="M97.7,9.7c-0.4,1.1-0.9,1.8-1.6,2.3c-0.6,0.5-1.4,0.7-2.4,0.8l-0.3-1.4c0.7-0.1,1.3-0.2,1.7-0.5
			c0.4-0.3,0.8-0.8,1.1-1.6l-2.9-6.8h1.9L97,7.3l1.6-4.8h1.8L97.7,9.7z"/>
	</g>
	<g>
		<path class="st0" d="M105.1,8.8c-0.2,0.2-0.4,0.3-0.6,0.4c-0.2,0.1-0.4,0.2-0.6,0.3c-0.3,0.1-0.5,0.1-0.8,0.1
			c-0.6,0-1.1-0.2-1.5-0.5c-0.4-0.4-0.6-0.8-0.6-1.4c0-1.5,1.3-2.3,3.9-2.4V4.8c0-0.4-0.1-0.6-0.3-0.8s-0.5-0.3-0.9-0.3
			c-0.5,0-1.2,0.1-2,0.4l-0.3-1.2c0.9-0.3,1.8-0.5,2.6-0.5c1.7,0,2.6,0.8,2.6,2.4v2.6c0,0.4,0.1,1.1,0.2,2h-1.5
			C105.2,9.2,105.2,8.9,105.1,8.8z M103.3,6.6c-0.4,0.2-0.5,0.5-0.5,0.9c0,0.3,0.1,0.5,0.2,0.6c0.1,0.1,0.3,0.2,0.6,0.2
			c0.4,0,0.8-0.2,1.4-0.7V6.3C104.2,6.3,103.7,6.4,103.3,6.6z"/>
	</g>
	<g>
		<path class="st0" d="M114.9,9.4h-1.7V3.9h-2L111,6.8c-0.1,0.8-0.3,1.5-0.7,1.9s-1,0.8-1.8,0.9l-0.4-1.3c0.5-0.1,0.8-0.3,1-0.6
			c0.2-0.3,0.3-0.7,0.4-1.2l0.3-4h5.1V9.4z"/>
	</g>
	<g>
		<path class="st0" d="M119.3,4.7c0.3,0,0.5,0,0.7,0c1,0,1.7,0.2,2.3,0.6s0.8,1,0.8,1.7c0,0.8-0.3,1.4-0.8,1.9
			c-0.6,0.4-1.4,0.6-2.4,0.6c-0.9,0-1.7,0-2.3-0.1V2.5h1.7L119.3,4.7L119.3,4.7z M119.3,8.2l0.7,0c0.4,0,0.8-0.1,1-0.3
			c0.2-0.2,0.3-0.5,0.3-0.9c0-0.7-0.4-1.1-1.3-1.1c-0.1,0-0.4,0-0.7,0L119.3,8.2L119.3,8.2z"/>
	</g>
	<g>
		<path class="st0" d="M129.2,6.5h-2.7v2.9h-1.7V2.5h1.7v2.6h2.7V2.5h1.7v6.9h-1.7V6.5z"/>
	</g>
	<g>
		<path class="st0" d="M136.9,8.8c-0.2,0.2-0.4,0.3-0.6,0.4c-0.2,0.1-0.4,0.2-0.6,0.3c-0.3,0.1-0.5,0.1-0.8,0.1
			c-0.6,0-1.1-0.2-1.5-0.5c-0.4-0.4-0.6-0.8-0.6-1.4c0-1.5,1.3-2.3,3.9-2.4V4.8c0-0.4-0.1-0.6-0.3-0.8s-0.5-0.3-0.9-0.3
			c-0.5,0-1.2,0.1-2,0.4l-0.3-1.2c0.9-0.3,1.8-0.5,2.6-0.5c1.7,0,2.6,0.8,2.6,2.4v2.6c0,0.4,0.1,1.1,0.2,2h-1.5
			C137,9.2,137,8.9,136.9,8.8z M135.1,6.6c-0.4,0.2-0.5,0.5-0.5,0.9c0,0.3,0.1,0.5,0.2,0.6c0.1,0.1,0.3,0.2,0.6,0.2
			c0.4,0,0.8-0.2,1.4-0.7V6.3C136,6.3,135.5,6.4,135.1,6.6z"/>
	</g>
	<g>
		<path class="st0" d="M146.2,9.4h-1.7V7.3h-0.8c-0.4,0-0.8,0.3-1,0.8l-0.5,1.4h-1.8l0.9-1.9c0.2-0.3,0.3-0.6,0.5-0.7
			c-0.8-0.4-1.2-1.1-1.2-1.9c0-0.8,0.3-1.4,0.8-1.8c0.6-0.4,1.4-0.6,2.5-0.6h2.3V9.4z M144.5,3.8h-0.8c-0.9,0-1.4,0.4-1.4,1.1
			c0,0.3,0.1,0.6,0.4,0.8c0.2,0.2,0.6,0.3,1,0.3h0.8V3.8z"/>
	</g>
	<g>
		<path class="st0" d="M27.6,16.5c-0.5,0.3-1.1,0.5-1.8,0.5c-0.3,0-0.6,0.1-0.8,0.1s-0.4,0.1-0.7,0.2c-0.2,0.1-0.4,0.3-0.6,0.4
			c-0.1,0.2-0.3,0.4-0.4,0.8c-0.1,0.3-0.2,0.7-0.3,1.2c0.7-0.4,1.3-0.6,2-0.6c0.9,0,1.5,0.3,2,0.8c0.5,0.5,0.7,1.3,0.7,2.3
			c0,1.2-0.3,2-0.9,2.7c-0.6,0.6-1.4,0.9-2.4,0.9c-2.1,0-3.2-1.5-3.2-4.5c0-0.8,0-1.4,0.1-2c0.1-0.6,0.2-1.1,0.4-1.5
			c0.2-0.4,0.4-0.7,0.6-1s0.5-0.5,0.9-0.6s0.7-0.3,1-0.3s0.7-0.1,1.1-0.2c0.3,0,0.6-0.1,0.8-0.1c0.2,0,0.4-0.1,0.5-0.1
			c0.1,0,0.2-0.1,0.4-0.2L27.6,16.5L27.6,16.5z M25.6,23.9c0.3-0.4,0.4-0.9,0.4-1.6c0-1.2-0.4-1.8-1.3-1.8c-0.5,0-1.1,0.2-1.6,0.5
			v0.4c0,1.1,0.1,1.9,0.4,2.3s0.6,0.7,1.1,0.7C24.9,24.4,25.3,24.2,25.6,23.9z"/>
	</g>
	<g>
		<path class="st0" d="M33.1,24.9c-0.2,0.2-0.4,0.3-0.6,0.4c-0.2,0.1-0.4,0.2-0.6,0.3s-0.5,0.1-0.8,0.1c-0.6,0-1.1-0.2-1.5-0.5
			c-0.4-0.4-0.6-0.8-0.6-1.4c0-1.5,1.3-2.3,3.9-2.4v-0.5c0-0.4-0.1-0.6-0.3-0.8c-0.2-0.2-0.5-0.3-0.9-0.3c-0.5,0-1.2,0.1-2,0.4
			L29.4,19c0.9-0.3,1.8-0.5,2.6-0.5c1.7,0,2.6,0.8,2.6,2.4v2.6c0,0.4,0.1,1.1,0.2,2h-1.5C33.2,25.3,33.1,25.1,33.1,24.9z M31.3,22.7
			c-0.4,0.2-0.5,0.5-0.5,0.9c0,0.3,0.1,0.5,0.2,0.6c0.1,0.1,0.3,0.2,0.6,0.2c0.4,0,0.8-0.2,1.4-0.7v-1.3
			C32.2,22.5,31.6,22.6,31.3,22.7z"/>
	</g>
	<g>
		<path class="st0" d="M40,18.5c1.2,0,2,0.3,2.6,0.9c0.6,0.6,0.9,1.5,0.9,2.7c0,1.2-0.3,2.1-0.9,2.7c-0.6,0.7-1.4,1-2.5,1
			c-0.4,0-0.8-0.1-1.2-0.2v3.5h-1.7V18.9C38.2,18.6,39.1,18.5,40,18.5z M40,24.4c0.5,0,1-0.2,1.3-0.6c0.3-0.4,0.5-0.9,0.5-1.6
			c0-1.5-0.6-2.3-1.8-2.3c-0.3,0-0.7,0.1-1,0.2v4.1C39.2,24.3,39.6,24.4,40,24.4z"/>
	</g>
	<g>
		<path class="st0" d="M45,20.8h4.4v1.4H45V20.8z"/>
	</g>
	<g>
		<path class="st0" d="M56.9,19.4c0.6,0.6,0.9,1.5,0.9,2.6c0,1.2-0.3,2.1-0.9,2.8s-1.5,1-2.5,1c-1,0-1.9-0.3-2.4-1
			c-0.6-0.6-0.9-1.5-0.9-2.6c0-1.1,0.3-2,0.9-2.7s1.5-1,2.6-1C55.5,18.5,56.3,18.8,56.9,19.4z M55.6,23.8c0.3-0.4,0.4-1,0.4-1.7
			c0-0.7-0.1-1.3-0.4-1.7c-0.3-0.4-0.7-0.6-1.2-0.6c-0.5,0-0.9,0.2-1.2,0.6c-0.3,0.4-0.4,0.9-0.4,1.7c0,0.8,0.1,1.3,0.4,1.7
			s0.7,0.6,1.2,0.6C54.9,24.4,55.3,24.2,55.6,23.8z"/>
	</g>
	<g>
		<path class="st0" d="M65.5,25.6h-1.7V20h-2l-0.3,2.9c-0.1,0.8-0.3,1.5-0.7,1.9s-1,0.8-1.8,0.9l-0.4-1.3c0.5-0.1,0.8-0.3,1-0.6
			s0.3-0.7,0.4-1.2l0.3-4h5.1V25.6z"/>
	</g>
	<g>
		<path class="st0" d="M74.3,25.6h-1.6v-4.3l-3.2,4.3h-1.3v-6.9h1.6V23l3.3-4.3h1.3V25.6z"/>
	</g>
	<g>
		<path class="st0" d="M83.1,21.4l-1.8,4.2h-1l-1.9-4.2l-0.3,4.2h-1.6l0.6-6.9h1.6l2.1,4.6l2.1-4.6h1.6l0.5,6.9h-1.7L83.1,21.4z"/>
	</g>
	<g>
		<path class="st0" d="M91.8,20H89v5.6h-1.7v-6.9h6.2v6.9h-1.7V20z"/>
	</g>
	<g>
		<path class="st0" d="M102.3,25.6h-1.6v-4.3l-3.2,4.3h-1.3v-6.9h1.6V23l3.3-4.3h1.3V25.6z"/>
	</g>
	<g>
		<path class="st0" d="M108.2,24.9c-0.2,0.2-0.4,0.3-0.6,0.4c-0.2,0.1-0.4,0.2-0.6,0.3c-0.3,0.1-0.5,0.1-0.8,0.1
			c-0.6,0-1.1-0.2-1.5-0.5c-0.4-0.4-0.6-0.8-0.6-1.4c0-1.5,1.3-2.3,3.9-2.4v-0.5c0-0.4-0.1-0.6-0.3-0.8s-0.5-0.3-0.9-0.3
			c-0.5,0-1.2,0.1-2,0.4l-0.3-1.2c0.9-0.3,1.8-0.5,2.6-0.5c1.7,0,2.6,0.8,2.6,2.4v2.6c0,0.4,0.1,1.1,0.2,2h-1.5
			C108.3,25.3,108.3,25.1,108.2,24.9z M106.4,22.7c-0.4,0.2-0.5,0.5-0.5,0.9c0,0.3,0.1,0.5,0.2,0.6c0.1,0.1,0.3,0.2,0.6,0.2
			c0.4,0,0.8-0.2,1.4-0.7v-1.3C107.3,22.5,106.8,22.6,106.4,22.7z"/>
	</g>
	<g>
		<path class="st0" d="M119.2,27.9h-1.4v-2.3h-5v2.3h-1.4v-3.6h0.6c0.3-0.3,0.4-0.6,0.5-0.8c0.1-0.3,0.2-0.7,0.2-1.2l0.2-3.6h5.4
			v5.7h0.9V27.9z M116.6,20h-2.2l-0.1,2.1c0,1-0.2,1.7-0.6,2.2h2.9V20z"/>
	</g>
	<g>
		<path class="st0" d="M124.4,24.9c-0.2,0.2-0.4,0.3-0.6,0.4c-0.2,0.1-0.4,0.2-0.6,0.3c-0.3,0.1-0.5,0.1-0.8,0.1
			c-0.6,0-1.1-0.2-1.5-0.5c-0.4-0.4-0.6-0.8-0.6-1.4c0-1.5,1.3-2.3,3.9-2.4v-0.5c0-0.4-0.1-0.6-0.3-0.8s-0.5-0.3-0.9-0.3
			c-0.5,0-1.2,0.1-2,0.4l-0.3-1.2c0.9-0.3,1.8-0.5,2.6-0.5c1.7,0,2.6,0.8,2.6,2.4v2.6c0,0.4,0.1,1.1,0.2,2h-1.5
			C124.5,25.3,124.4,25.1,124.4,24.9z M122.6,22.7c-0.4,0.2-0.5,0.5-0.5,0.9c0,0.3,0.1,0.5,0.2,0.6c0.1,0.1,0.3,0.2,0.6,0.2
			c0.4,0,0.8-0.2,1.4-0.7v-1.3C123.5,22.5,122.9,22.6,122.6,22.7z"/>
	</g>
</g>
<path class="st0" d="M14,42.1C8.7,47.3,1,58.4,1,71.6c0,12.1,6.4,19.8,7.9,20.9l3-2.7c-1.5-1.3-6.6-8.5-6.6-18.8
	c0-11.3,6.6-21.4,11.3-26.2L14,42.1z M32.8,59c0.4,0,0.8,0,1.1,0.1c0,4.6-1.2,14.6-4.9,14.6c-1,0-1.7-0.1-2.4-0.4l1.6-13.4
	C30.3,59.2,31.7,59,32.8,59z M37.2,51.8c-3.8,0-6.1,2.6-8.7,5.4c0.1-1.3,0.3-2.2,0.3-3.1c0-1.5-1-2.3-3-2.3c-3.2,0-6.5,2.5-8.4,4.1
	v1.8h3.3l-2.1,19.2c1.9,0.9,4.1,1.7,7.8,1.7c10.9,0,15.2-12.8,15.2-21.3C41.9,53.9,40.4,51.8,37.2,51.8z M60.5,66.8
	C60,70.4,58.8,74,56.1,74c-1.2,0-2.2-0.9-2.2-2.3C53.9,69.9,54.9,68,60.5,66.8z M58.4,56.9c0.9,0,2.4,0.4,3,0.7l-0.6,5.6
	c-2.4,0.4-2.9,0.6-5,1.3c-0.8-0.7-1.3-2.1-1.3-3.4C54.5,58.6,56,56.9,58.4,56.9z M60.9,51.9c-6.6,0-14.4,3.7-14.4,9.6
	c0,2.5,1.7,4.3,4.2,5.2c-2,0.8-4.2,3.4-4.2,6.4c0,4.5,3.5,5.7,8,5.7c9.5,0,14.3-9.4,14.3-19.2C68.8,55.1,67.7,51.9,60.9,51.9z
	 M85.2,51.9c-4.2,0-9.2,2-12,4.4l2,3.5c2.2-1.2,5.1-2.1,7.3-2.1c0.5,0,1.1,0.8,1.1,2c0,1.3-1.9,2.3-7.1,6.2
	c-1.5,1.1-4.1,3.4-4.1,5.8c0,3.4,3,6.7,6.1,6.7c3.5,0,8.6-1.9,10.5-3.3l-1.8-3.5c-2,1-4.6,1.5-5.9,1.5c-0.5,0-0.9-0.9-0.9-1.6
	c-0.1-1.1,0.7-2,2.1-3.1c3.5-2.8,9.6-5.1,9.6-8.8C91.9,55.7,89.4,51.9,85.2,51.9z M108.1,52.1c-5.9,0-12.3,3-12.3,9.5
	c0,2.7,1.8,4.7,5.2,5.4c-2.6,1.1-5.1,3.3-5.1,6.4c0,3.7,4.1,5.3,7.9,5.3c3.6,0,6.9-0.9,8-1.4c0.4-1.2,0.5-4.7,0.4-5.8
	c-1.7,0.7-3.8,1.5-6.2,1.6c-1.5,0-2.8-0.1-3.9-0.9c0-1.6,4.7-4.1,7.4-5l-0.4-3.1c-3.4-0.3-6.8-0.7-6.8-3.5c0-1.7,1.7-2.7,4-2.7
	c2.1,0,5.1,1.4,7,2.5c0.9-1.5,2.3-4.3,2.6-6.3C113.9,53,110.3,52.1,108.1,52.1z M130.4,51.9c-8.5,0-13.1,10.6-13.1,17.8
	c0,6.3,5,8.9,10.6,8.9c8.2,0,12.3-11.5,12.3-18.3C140.2,54.4,135.8,51.9,130.4,51.9z M128.8,57.3c1.1,0,2.6,0.1,3.6,0.6
	c0.1,1.3,0.1,2.5,0.1,3.8c0,2.6-0.1,12.2-4.1,12.2c-1.1,0-2.5-0.2-3.5-0.8c-0.1-1-0.2-2.1-0.2-3.1C124.8,67.6,125.3,57.3,128.8,57.3
	z M172.9,52.5h-7.4l-11,24.8h-0.2l0.5-4.5v-13c0-3,0.5-3.6,2.4-4.3l1.1-0.4c0-0.6,0-1.8,0-2.5h-15.4c-0.2,0.5-0.3,2.2-0.3,2.6l2.4,1
	c0.8,0.3,1.3,0.6,1.3,1.7l0.5,21.2c0,2.1-0.8,3.1-1.9,3.4l-1.7,0.5c0,0.7,0,2.2,0.1,2.9h13.6l6.6-15.5l2.9-7.3h0.4l0.8,7.3l2.2,15.5
	h13.9c0.2-0.5,0.4-2.5,0.4-3l-2.9-0.9c-0.8-0.3-1.4-1-1.1-2.1l6.6-20.2c0.5-1.4,1.5-2.8,2.6-3.7l1-0.8c0-0.6-0.1-1.8-0.1-2.5h-12.4
	c-0.2,0.5-0.3,2.3-0.4,2.7l3.7,1.4c0.5,0.1,0.7,0.7,0.4,1.5l-3.7,13.5l-1.3,5.9h-0.3L172.9,52.5z M196.1,42.1l-3.1,2.8
	c1.3,1.4,6.4,9.4,6.4,19.7c0,11.1-6.4,21.3-11.2,25.2l2.4,2.7c5.4-4.1,13.1-15.3,13.1-28.4C203.7,51.9,197.5,43.4,196.1,42.1z"/>
</svg>
